<svg xmlns="http://www.w3.org/2000/svg" xmlns:xlink="http://www.w3.org/1999/xlink" width="20" height="20" version="1.1" viewBox="0 0 20 20"><title>repeat</title><desc>Created with Sketch.</desc><g id="Blocks-&amp;-Components" fill="none" fill-rule="evenodd" stroke="none" stroke-width="1"><g id="icons/repeat/white" transform="translate(-4.000000, -4.000000)"><g id="repeat"><rect id="frame" width="28" height="28" x="0" y="0"/><g id="shapes" stroke="#FFF" stroke-linecap="round" stroke-linejoin="round" stroke-width="2.16" transform="translate(5.000000, 5.000000)"><path id="Rectangle-9" d="M16.923913,9.01789107 L16.923913,13.7003184 C16.923913,14.4082318 16.3259965,14.9821089 15.5869502,14.9821089 L2.34782609,14.9821089"/><polyline id="Triangle-4" points="4.931 17.966 .767 14.984 .767 14.984 4.931 12.002"/><path id="Rectangle-9" d="M15.1793797,3.72664107 L15.1793797,8.40906842 C15.1793797,9.11698177 14.5814631,9.69085893 13.8424169,9.69085893 L0.603292714,9.69085893" transform="translate(7.891336, 6.708750) scale(-1, -1) translate(-7.891336, -6.708750)"/><polyline id="Triangle-4" points="16.76 6.707 12.596 3.725 12.596 3.725 16.76 .743" transform="translate(14.678045, 3.724609) scale(-1, 1) translate(-14.678045, -3.724609)"/></g></g></g></g></svg>