<svg xmlns="http://www.w3.org/2000/svg" xmlns:xlink="http://www.w3.org/1999/xlink" width="30" height="24" version="1.1" viewBox="0 0 30 24"><title>albums_2@1x</title><desc>Created with Sketch.</desc><defs><rect id="path-1" width="18" height="18" x="0" y="0" rx="4"/></defs><g id="Blocks-&amp;-Components" fill="none" fill-rule="evenodd" stroke="none" stroke-width="1"><g id="icons/album/white" transform="translate(2.000000, 3.000000)"><g id="albums_2" transform="translate(-2.000000, -2.000000)"><rect id="frame" width="29" height="23" x="0" y="0" opacity=".53"/><g id="shapes" transform="translate(3.000000, 2.000000)"><circle id="circle" cx="19.5" cy="9.5" r="7.5" fill="#FFF"/><circle id="small-circle" cx="20.5" cy="9.5" r="3" fill="#1F111C"/><g id="square"><use fill="#FFF" fill-rule="evenodd" xlink:href="#path-1"/><rect width="21" height="21" x="-1.5" y="-1.5" stroke="#120810" stroke-width="3" rx="4"/></g><path id="note" fill="#1F111C" d="M10.625,6.375 L10.625,12.1274554 C10.625,12.182303 10.6204872,12.2361167 10.6118293,12.2885589 C10.620542,12.3786958 10.625,12.4700773 10.625,12.5625 C10.625,14.1158009 9.36580086,15.375 7.8125,15.375 C6.25919914,15.375 5,14.1158009 5,12.5625 C5,11.0091991 6.25919914,9.75 7.8125,9.75 C8.00513703,9.75 8.19325066,9.76936702 8.375,9.80626019 L8.375,5.12254465 C8.375,5.08650556 8.37694838,5.05091284 8.38074087,5.0158623 C8.3769402,4.9726946 8.375,4.92899814 8.375,4.88485157 L8.375,4.49014843 C8.375,3.66716217 9.04235037,3 9.88239677,3 L12.4926032,3 C13.3251155,3 14,3.66679139 14,4.49014843 L14,5.38064289 C14,5.92981116 13.5586157,6.375 12.9943627,6.375 L10.625,6.375 Z"/></g></g></g></g></svg>