<svg xmlns="http://www.w3.org/2000/svg" xmlns:xlink="http://www.w3.org/1999/xlink" width="14" height="18" version="1.1" viewBox="0 0 14 18"><title>locality</title><desc>Created with Sketch.</desc><g id="Blocks-&amp;-Components" fill="none" fill-rule="evenodd" stroke="none" stroke-width="1"><g id="icons/pin/white" transform="translate(-7.000000, -5.000000)"><g id="locality"><rect id="frame" width="28" height="28" x="0" y="0"/><path id="shapes" fill="#FFF" d="M14,8.9375 C12.3888451,8.9375 11.0833333,10.1963864 11.0833333,11.75 C11.0833333,13.3036136 12.3888451,14.5625 14,14.5625 C15.6111549,14.5625 16.9166667,13.3036136 16.9166667,11.75 C16.9166667,10.1963864 15.6111549,8.9375 14,8.9375 Z M14,5 C17.8663333,5 21,8.02286364 21,11.75 C21,13.0988864 20.5893333,14.3549318 19.8829226,15.4090682 L15.2255892,22.3559318 C14.966,22.7435 14.5139226,23 14,23 C13.4860774,23 13.034,22.7435 12.7744108,22.3565 L8.11707744,15.4096136 C7.41066667,14.3549318 7,13.0988864 7,11.75 C7,8.02286364 10.1342559,5 14,5 Z"/></g></g></g></svg>