<svg xmlns="http://www.w3.org/2000/svg" xmlns:xlink="http://www.w3.org/1999/xlink" width="4" height="18" version="1.1" viewBox="0 0 4 18"><title>options</title><desc>Created with Sketch.</desc><g id="Blocks-&amp;-Components" fill="none" fill-rule="evenodd" stroke="none" stroke-width="1"><g id="icons/options/style-1/black" transform="translate(-12.000000, -5.000000)"><g id="options"><rect id="frame" width="28" height="28" x="0" y="0"/><path id="shapes" fill="#1F111C" d="M14,9 C12.8954305,9 12,8.1045695 12,7 C12,5.8954305 12.8954305,5 14,5 C15.1045695,5 16,5.8954305 16,7 C16,8.1045695 15.1045695,9 14,9 Z M14,16 C12.8954305,16 12,15.1045695 12,14 C12,12.8954305 12.8954305,12 14,12 C15.1045695,12 16,12.8954305 16,14 C16,15.1045695 15.1045695,16 14,16 Z M14,23 C12.8954305,23 12,22.1045695 12,21 C12,19.8954305 12.8954305,19 14,19 C15.1045695,19 16,19.8954305 16,21 C16,22.1045695 15.1045695,23 14,23 Z"/></g></g></g></svg>