<svg xmlns="http://www.w3.org/2000/svg" xmlns:xlink="http://www.w3.org/1999/xlink" width="18" height="18" version="1.1" viewBox="0 0 18 18"><title>best@1x</title><desc>Created with Sketch.</desc><g id="Blocks-&amp;-Components" fill="none" fill-rule="evenodd" stroke="none" stroke-width="1"><g id="icons/star/style-1/black" transform="translate(-8.000000, -8.000000)"><g id="best"><rect id="frame" width="34" height="34" x="0" y="0"/><path id="Shapes" stroke="#1F111C" stroke-width="2" d="M21.5083902,25 C21.3751763,25 21.2416101,24.9603449 21.1246074,24.8808503 L16.9999119,22.080463 L12.8750402,24.8810347 C12.6290527,25.0481394 12.3097623,25.0385484 12.0732901,24.8557661 C11.8369941,24.673906 11.7333834,24.3575875 11.8130297,24.0617421 L13.1049926,19.2636603 L9.24954416,15.8488957 C9.03086905,15.6550468 8.94593641,15.3420482 9.03474564,15.0569004 C9.12355487,14.7717527 9.3684851,14.5712639 9.65429577,14.5498686 L14.2781908,14.2010882 L16.3588643,9.43141052 C16.4734,9.16858026 16.7239689,9 16.9999119,9 C17.2758549,9 17.5266,9.16858026 17.6411357,9.43141052 L19.7219854,14.2010882 L24.3457042,14.5498686 C24.6315149,14.5712639 24.8764451,14.7717527 24.9652544,15.0569004 C25.0540636,15.3420482 24.969131,15.6550468 24.7504558,15.8488957 L20.8948311,19.2636603 L22.186794,24.0619265 C22.2664404,24.3577719 22.1628297,24.6737216 21.9265337,24.8559506 C21.8023065,24.9514917 21.6553483,25 21.5083902,25 Z"/></g></g></g></svg>