<svg xmlns="http://www.w3.org/2000/svg" xmlns:xlink="http://www.w3.org/1999/xlink" width="17" height="17" version="1.1" viewBox="0 0 17 17"><title>searches@1x</title><desc>Created with Sketch.</desc><g id="Blocks-&amp;-Components" fill="none" fill-rule="evenodd" stroke="none" stroke-width="1"><g id="icons/lens/black" transform="translate(-8.000000, -8.000000)"><g id="searches"><rect id="frame" width="34" height="34" x="0" y="0"/><path id="shapes" fill="#1F111C" stroke="#1F111C" stroke-width="1.55" d="M19.930847,18.9665968 C20.7706718,17.9167732 21.2726575,16.5851899 21.2726575,15.1363345 C21.2726575,11.7473764 18.5254572,9.00000568 15.1363288,9.00000568 C11.7473708,9.00000568 9,11.7473764 9,15.1363345 C9,18.5252925 11.7473708,21.2726632 15.1363288,21.2726632 C16.5851842,21.2726632 17.9167675,20.770507 18.9665911,19.9306822 L22.8360577,23.8001489 C22.969182,23.9332731 23.1437265,23.9999205 23.3181005,23.9999205 C23.4926449,23.9999205 23.6671894,23.9332731 23.8003136,23.8001489 C24.0665621,23.5340708 24.0665621,23.1021415 23.8003136,22.8360634 L19.930847,18.9665968 Z M15.1363288,19.9090346 C12.5004347,19.9090346 10.3636286,17.7722286 10.3636286,15.1363345 C10.3636286,12.5004403 12.5004347,10.3636343 15.1363288,10.3636343 C17.7723933,10.3636343 19.9090289,12.5004403 19.9090289,15.1363345 C19.9090289,17.7722286 17.7723933,19.9090346 15.1363288,19.9090346 L15.1363288,19.9090346 Z"/></g></g></g></svg>